<svg width="17" height="18" viewBox="0 0 17 18" fill="none" xmlns="http://www.w3.org/2000/svg">
<path d="M8.33333 6.48649H10V4.05405H12.5V2.43243H10V0H8.33333V2.43243H5.83333V4.05405H8.33333V6.48649ZM5 13.7838C4.08333 13.7838 3.34167 14.5135 3.34167 15.4054C3.34167 16.2973 4.08333 17.027 5 17.027C5.91667 17.027 6.66667 16.2973 6.66667 15.4054C6.66667 14.5135 5.91667 13.7838 5 13.7838ZM13.3333 13.7838C12.4167 13.7838 11.675 14.5135 11.675 15.4054C11.675 16.2973 12.4167 17.027 13.3333 17.027C14.25 17.027 15 16.2973 15 15.4054C15 14.5135 14.25 13.7838 13.3333 13.7838ZM5.14167 11.1486L5.16667 11.0514L5.91667 9.72973H12.125C12.75 9.72973 13.3 9.3973 13.5833 8.89459L16.8 3.21081L15.35 2.43243H15.3417L14.425 4.05405L12.125 8.10811H6.275L6.16667 7.88919L4.3 4.05405L3.50833 2.43243L2.725 0.810811H0V2.43243H1.66667L4.66667 8.58649L3.54167 10.573C3.40833 10.8 3.33333 11.0676 3.33333 11.3514C3.33333 12.2432 4.08333 12.973 5 12.973H15V11.3514H5.35C5.24167 11.3514 5.14167 11.2622 5.14167 11.1486Z" fill="#323232"/>
</svg>
