<svg width="23" height="21" viewBox="0 0 23 21" fill="none" xmlns="http://www.w3.org/2000/svg">
<path d="M13.7754 7.35645L13.8945 7.62988L14.1914 7.65527L20.9766 8.22363L15.8438 12.5586L15.6094 12.7568L15.6807 13.0566L17.2188 19.5146L11.3643 16.0771L11.1113 15.9287L10.8584 16.0771L5.00391 19.5137L6.55273 13.0566L6.625 12.7568L6.38867 12.5586L1.24805 8.22461L8.03027 7.66602L8.32812 7.6416L8.44727 7.36719L11.1104 1.25098L13.7754 7.35645ZM10.6523 4.2334L8.88184 8.31543L4.31348 8.70215L3.11035 8.80371L4.0332 9.58203L7.48633 12.4961L6.44727 16.8242L6.17285 17.9678L7.18652 17.3721L11.1113 15.0664L15.0469 17.3818L16.0615 17.9795L15.7861 16.835L14.7461 12.5068L18.2002 9.59277L19.123 8.81445L17.9199 8.71289L13.3506 8.32617L11.5693 4.2334L11.1104 3.17676L10.6523 4.2334Z" stroke="black"/>
</svg>
